<?xml version="1.0" encoding="utf-8"?>
<!-- Svg Vector Icons : http://www.onlinewebfonts.com/icon -->
<!DOCTYPE svg PUBLIC "-//W3C//DTD SVG 1.1//EN" "http://www.w3.org/Graphics/SVG/1.1/DTD/svg11.dtd">
<svg version="1.1" xmlns="http://www.w3.org/2000/svg" xmlns:xlink="http://www.w3.org/1999/xlink" x="0px" y="0px" viewBox="0 0 1000 1000" enable-background="new 0 0 1000 1000" xml:space="preserve">
<metadata> Svg Vector Icons : http://www.onlinewebfonts.com/icon </metadata>
<g><g><path style="fill:#ffffff;" d="M654.4,460.2c20.4-13.6,44.4-19.4,67.9-16.7L990,175.6L840,25.7L572.3,293.5c2.7,23.8-3.3,48.1-17.4,68.7L654.4,460.2z"/><polygon style="fill:#ffffff;" points="187.3,786.4 177.6,776.7 126.8,817.7 41.3,952.4 63.2,974.3 198,888.8 239,838.2 229.3,828.3 399.6,658 357.3,616.3 "/><path style="fill:#ffffff;" d="M420.2,314.1c19.7-70.3,1.8-148.9-53.3-204.1c-55-54.8-132.6-72.7-202.5-53.8l118.4,118.3l-31,115.9l-116,31L17.3,203.2c-18.9,69.8-1,147.5,53.9,202.4c57.5,57.5,140.4,74.4,212.9,50.9l0.7,0.7L771.6,944c19.3,19.2,44.5,29,69.7,29c25.3,0,50.4-9.7,69.8-29c38.5-38.4,38.5-100.8,0-139.5L420.2,314.1z M849.8,927.4c-20.7,0-37.5-16.9-37.5-37.7c0-20.9,16.8-37.7,37.5-37.7c20.9,0,37.7,16.8,37.7,37.7C887.6,910.6,870.7,927.4,849.8,927.4z"/><g></g><g></g><g></g><g></g><g></g><g></g><g></g><g></g><g></g><g></g><g></g><g></g><g></g><g></g><g></g></g><g></g><g></g><g></g><g></g><g></g><g></g><g></g><g></g><g></g><g></g><g></g><g></g><g></g><g></g><g></g></g>
</svg>